<svg width="164" height="182" viewBox="0 0 164 182" fill="none" xmlns="http://www.w3.org/2000/svg">
<g filter="url(#filter0_d_8_20)">
<path d="M33.5817 66.0138C90.82 84.1873 117.496 102.692 163.523 138.081L102.022 170.724C69.1017 146.015 46.8414 133.18 1.72705 111.746L33.5817 66.0138Z" fill="#952908"/>
<path d="M108.33 99.4455C133.611 93.0503 144.906 86.6712 163.996 71.2179V137.766C164.243 138.835 152.169 151.958 138.134 159.37C124.099 166.782 114.167 174.893 102.495 170.882C90.8225 166.87 108.33 99.4455 108.33 99.4455Z" fill="#B43717"/>
<path d="M132.457 75.0024L138.134 70.7446C141.437 74.511 142.733 77.0345 144.284 82.0987V152.431C143.623 154.4 143.193 155.47 141.761 157.004C139.835 158.63 138.774 159.373 137.03 159.37C137.303 158.263 137.369 157.352 137.346 155.27V85.2527C136.134 79.6463 134.902 77.7738 132.457 75.0024Z" fill="white"/>
<path d="M0.150146 39.9939V34.6323C7.49676 21.636 18.4012 14.3826 49.9821 0.569835C54.5347 -0.247384 56.7437 -0.130252 60.39 0.569835L158.95 57.6559C163.666 62.5423 163.681 64.1215 163.996 71.2178C145.932 87.3277 137.198 93.944 111.957 101.18L0.150146 39.9939Z" fill="#D8491D"/>
<path d="M25.2239 20.5973C31.4019 12.8208 35.8371 10.5155 45.0936 9.24316L147.123 68.0639C136.519 70.3142 132.459 73.0402 127.569 79.7334L25.2239 20.5973Z" fill="#FE5433"/>
<path d="M31.3739 20.2819L37.3664 15.0779L46.0396 11.6086C55.1586 6.36247 60.2695 3.91497 69.3787 2.14685C96.4346 3.67599 111.976 14.8765 134.823 63.0176L120.157 71.8486C110.909 60.9007 104.27 23.6542 71.7441 13.8164C53.609 5.30077 38.7856 25.1705 31.3739 20.2819Z" fill="url(#paint0_linear_8_20)"/>
<path d="M25.3816 12.5548L30.7433 9.40088C35.0121 9.52934 36.5361 9.85325 37.3665 10.9778L31.2163 14.2895C30.159 13.3259 29.0529 12.9062 25.3816 12.5548Z" fill="white"/>
<path d="M0.128976 40.5116C0.138405 35.6558 5.4008 32.6312 9.60132 35.0673L105.577 90.7274C107.482 91.8322 108.673 93.851 108.718 96.0531L110.132 164.167C110.237 169.231 104.632 172.346 100.382 169.592C69.9136 149.847 42.6862 132.77 3.4438 112.568C1.33212 111.481 -0.0045998 109.303 1.18947e-05 106.928L0.128976 40.5116Z" fill="#9D2D15"/>
<g filter="url(#filter1_i_8_20)">
<path d="M48.2889 88.69L48.1637 88.4308C48.1154 88.3308 48.0841 88.2236 48.071 88.1133L47.5725 83.9014C47.4616 82.9646 46.2342 82.6883 45.7325 83.4872L36.0594 98.8926C35.9256 99.1057 35.8771 99.3614 35.9234 99.6086L38.2946 112.255C38.3499 112.55 38.5349 112.804 38.7986 112.948L51.9186 120.105C52.1623 120.237 52.4503 120.263 52.7137 120.175L64.5454 116.231C64.8063 116.145 65.0199 115.954 65.1359 115.705L73.3534 98.0403C73.3813 97.9934 73.382 97.9692 73.382 97.9574C73.3817 97.9368 73.3756 97.9048 73.3551 97.8691C73.3345 97.8337 73.3099 97.8122 73.2921 97.8017C73.2819 97.7957 73.2607 97.7839 73.2061 97.7849L64.1115 97.9402L63.674 97.9477C63.4867 97.951 63.3023 97.9015 63.1417 97.805L62.7668 97.5797L49.0648 89.3469L48.6741 89.112C48.5074 89.0118 48.3735 88.8651 48.2889 88.69Z" fill="white" stroke="white" stroke-width="5"/>
<path d="M60.2365 107.435L45.1694 98.3822L42.398 102.995L57.4651 112.048L60.2365 107.435Z" fill="#D8491D"/>
<path d="M53.538 96.2966L44.4847 111.364L49.0971 114.135L58.1503 99.068L53.538 96.2966Z" fill="#9D2D15"/>
</g>
</g>
<defs>
<filter id="filter0_d_8_20" x="0" y="0" width="164" height="181.945" filterUnits="userSpaceOnUse" color-interpolation-filters="sRGB">
<feFlood flood-opacity="0" result="BackgroundImageFix"/>
<feColorMatrix in="SourceAlpha" type="matrix" values="0 0 0 0 0 0 0 0 0 0 0 0 0 0 0 0 0 0 127 0" result="hardAlpha"/>
<feOffset dy="10"/>
<feComposite in2="hardAlpha" operator="out"/>
<feColorMatrix type="matrix" values="0 0 0 0 0 0 0 0 0 0 0 0 0 0 0 0 0 0 0.1 0"/>
<feBlend mode="normal" in2="BackgroundImageFix" result="effect1_dropShadow_8_20"/>
<feBlend mode="normal" in="SourceGraphic" in2="effect1_dropShadow_8_20" result="shape"/>
</filter>
<filter id="filter1_i_8_20" x="33.4062" y="80.5157" width="42.4757" height="42.2109" filterUnits="userSpaceOnUse" color-interpolation-filters="sRGB">
<feFlood flood-opacity="0" result="BackgroundImageFix"/>
<feBlend mode="normal" in="SourceGraphic" in2="BackgroundImageFix" result="shape"/>
<feColorMatrix in="SourceAlpha" type="matrix" values="0 0 0 0 0 0 0 0 0 0 0 0 0 0 0 0 0 0 127 0" result="hardAlpha"/>
<feOffset dx="-1" dy="1"/>
<feComposite in2="hardAlpha" operator="arithmetic" k2="-1" k3="1"/>
<feColorMatrix type="matrix" values="0 0 0 0 0 0 0 0 0 0 0 0 0 0 0 0 0 0 0.1 0"/>
<feBlend mode="normal" in2="shape" result="effect1_innerShadow_8_20"/>
</filter>
<linearGradient id="paint0_linear_8_20" x1="16.5505" y1="2.14685" x2="141.761" y2="92.349" gradientUnits="userSpaceOnUse">
<stop stop-color="#952908"/>
<stop offset="0.473958" stop-color="#D8491D"/>
<stop offset="1" stop-color="#952908"/>
</linearGradient>
</defs>
</svg>
