<svg width="58" height="56" viewBox="0 0 118 116" fill="none" xmlns="http://www.w3.org/2000/svg">
<path d="M31.0274 29.2823L32.899 30.5079H35.1361H82.5787H84.7278L86.5508 29.3697L109.45 15.0722C109.587 14.9867 109.659 14.9838 109.694 14.9836C109.755 14.9831 109.851 15 109.957 15.0591C110.064 15.1182 110.129 15.1904 110.16 15.242C110.179 15.2724 110.215 15.3349 110.215 15.4963V78.9793L78.893 108.431H37.4833L7.5 79.0693L7.5 14.8012C7.5 14.6352 7.53676 14.5733 7.55466 14.5445C7.5864 14.4935 7.65266 14.4205 7.76226 14.3613C7.87186 14.302 7.96918 14.2866 8.02925 14.288C8.06312 14.2888 8.13506 14.2919 8.27391 14.3828L31.0274 29.2823Z" fill="#9D2D15" stroke="#9D2D15" stroke-width="15"/>
<rect x="30.6074" y="38.75" width="58.5" height="38.5" rx="7.25" stroke="white" stroke-width="1.5"/>
<circle cx="60.3574" cy="58.5" r="12" fill="#9E9E9E" stroke="white"/>
<path d="M53.3574 53.25C52.7801 53.25 52.4192 52.625 52.7079 52.125C52.9966 51.625 53.7183 51.625 54.0069 52.125C54.2956 52.625 53.9348 53.25 53.3574 53.25Z" fill="white" stroke="white"/>
<path d="M60.3574 62.75C57.0858 62.75 55.041 59.2083 56.6768 56.375C58.3126 53.5417 62.4022 53.5417 64.038 56.375C65.6739 59.2083 63.6291 62.75 60.3574 62.75Z" fill="white" stroke="white"/>
</svg>
