<svg width="118" height="124" viewBox="0 0 118 124" fill="none" xmlns="http://www.w3.org/2000/svg">
<g filter="url(#filter0_d_1559_425)">
<path d="M31.0274 29.2823L32.899 30.5079H35.1361H82.5787H84.7278L86.5508 29.3697L109.45 15.0722C109.587 14.9867 109.659 14.9838 109.694 14.9836C109.755 14.9831 109.851 15 109.957 15.0591C110.064 15.1182 110.129 15.1904 110.16 15.242C110.179 15.2724 110.215 15.3349 110.215 15.4963V78.9793L78.893 108.431H37.4833L7.5 79.0693L7.5 14.8012C7.5 14.6352 7.53676 14.5733 7.55466 14.5445C7.5864 14.4935 7.65266 14.4205 7.76226 14.3613C7.87186 14.302 7.96918 14.2866 8.02925 14.288C8.06312 14.2888 8.13506 14.2919 8.27391 14.3828L31.0274 29.2823Z" fill="#9D2D15" stroke="#9D2D15" stroke-width="15"/>
<path d="M44.6129 49.05C44.6129 50.35 44.3963 51.4833 43.9629 52.45C43.5296 53.4167 42.9963 54.2833 42.3629 55.05C41.6963 55.8167 40.9796 56.5167 40.2129 57.15C39.4463 57.8167 38.7296 58.4667 38.0629 59.1C37.3963 59.7667 36.8629 60.4667 36.4629 61.2C36.0296 61.9333 35.8129 62.7833 35.8129 63.75C35.8129 65.35 36.4463 66.65 37.7129 67.65C38.9796 68.65 40.7296 69.15 42.9629 69.15C44.9629 69.15 46.6963 68.8167 48.1629 68.15C49.6296 67.4833 50.8796 66.5 51.9129 65.2L55.5629 67.8C54.1629 69.5667 52.3796 70.9333 50.2129 71.9C48.0463 72.9 45.5129 73.4 42.6129 73.4C40.2129 73.4 38.1296 73.0333 36.3629 72.3C34.5963 71.6 33.2296 70.5833 32.2629 69.25C31.2629 67.95 30.7629 66.3667 30.7629 64.5C30.7629 63.1 30.9796 61.9 31.4129 60.9C31.8463 59.9 32.3963 59.0167 33.0629 58.25C33.7296 57.4833 34.4463 56.7667 35.2129 56.1C35.9463 55.4333 36.6463 54.7667 37.3129 54.1C37.9796 53.4333 38.5296 52.7 38.9629 51.9C39.3963 51.1 39.6129 50.15 39.6129 49.05H44.6129ZM42.0629 37.7C42.9963 37.7 43.7796 38.0167 44.4129 38.65C45.0129 39.2833 45.3129 40.0333 45.3129 40.9C45.3129 41.8333 45.0129 42.6 44.4129 43.2C43.7796 43.8 42.9963 44.1 42.0629 44.1C41.1296 44.1 40.3629 43.8 39.7629 43.2C39.1629 42.6 38.8629 41.8333 38.8629 40.9C38.8629 40.0333 39.1629 39.2833 39.7629 38.65C40.3629 38.0167 41.1296 37.7 42.0629 37.7Z" fill="white"/>
<path d="M73.7508 61.95C73.7508 60.65 73.9675 59.5167 74.4008 58.55C74.8342 57.5833 75.3675 56.7167 76.0008 55.95C76.6675 55.1833 77.3842 54.4833 78.1508 53.85C78.9175 53.1833 79.6342 52.5333 80.3008 51.9C80.9675 51.2333 81.5008 50.5333 81.9008 49.8C82.3342 49.0667 82.5508 48.2167 82.5508 47.25C82.5508 45.65 81.9175 44.35 80.6508 43.35C79.3842 42.35 77.6342 41.85 75.4008 41.85C73.4008 41.85 71.6675 42.1833 70.2008 42.85C68.7342 43.5167 67.4842 44.5 66.4508 45.8L62.8008 43.2C64.2008 41.4333 65.9842 40.0667 68.1508 39.1C70.3175 38.1 72.8508 37.6 75.7508 37.6C78.1508 37.6 80.2342 37.9667 82.0008 38.7C83.7675 39.4 85.1342 40.4167 86.1008 41.75C87.1008 43.05 87.6008 44.6333 87.6008 46.5C87.6008 47.9 87.3842 49.1 86.9508 50.1C86.5175 51.1 85.9675 51.9833 85.3008 52.75C84.6342 53.5167 83.9175 54.2333 83.1508 54.9C82.4175 55.5667 81.7175 56.2333 81.0508 56.9C80.3842 57.5667 79.8342 58.3 79.4008 59.1C78.9675 59.9 78.7508 60.85 78.7508 61.95H73.7508ZM76.3008 73.3C75.3675 73.3 74.5842 72.9833 73.9508 72.35C73.3508 71.7167 73.0508 70.9667 73.0508 70.1C73.0508 69.1667 73.3508 68.4 73.9508 67.8C74.5842 67.2 75.3675 66.9 76.3008 66.9C77.2342 66.9 78.0008 67.2 78.6008 67.8C79.2008 68.4 79.5008 69.1667 79.5008 70.1C79.5008 70.9667 79.2008 71.7167 78.6008 72.35C78.0008 72.9833 77.2342 73.3 76.3008 73.3Z" fill="white"/>
</g>
<defs>
<filter id="filter0_d_1559_425" x="0" y="6.78809" width="117.715" height="117.143" filterUnits="userSpaceOnUse" color-interpolation-filters="sRGB">
<feFlood flood-opacity="0" result="BackgroundImageFix"/>
<feColorMatrix in="SourceAlpha" type="matrix" values="0 0 0 0 0 0 0 0 0 0 0 0 0 0 0 0 0 0 127 0" result="hardAlpha"/>
<feOffset dy="8"/>
<feComposite in2="hardAlpha" operator="out"/>
<feColorMatrix type="matrix" values="0 0 0 0 0 0 0 0 0 0 0 0 0 0 0 0 0 0 0.1 0"/>
<feBlend mode="normal" in2="BackgroundImageFix" result="effect1_dropShadow_1559_425"/>
<feBlend mode="normal" in="SourceGraphic" in2="effect1_dropShadow_1559_425" result="shape"/>
</filter>
</defs>
</svg>
