<svg width="22" height="17" viewBox="0 0 22 17" fill="none" xmlns="http://www.w3.org/2000/svg">
<path d="M11 0.5C6 0.5 1.7 3.6 0 8C1.7 12.4 6 15.5 11 15.5H12.1C12 15.2 12 14.9 12 14.5C12 13.9 12.1 13.4 12.2 12.8C11.8 12.9 11.4 13 11 13C8.2 13 6 10.8 6 8C6 5.2 8.2 3 11 3C13.8 3 16 5.2 16 8C16 8.3 16 8.6 15.9 8.9C16.6 8.7 17.3 8.5 18 8.5C19.2 8.5 20.3 8.8 21.3 9.5C21.6 9 21.8 8.5 22 8C20.3 3.6 16 0.5 11 0.5ZM11 5C9.3 5 8 6.3 8 8C8 9.7 9.3 11 11 11C12.7 11 14 9.7 14 8C14 6.3 12.7 5 11 5ZM18 17V15H14V13H18V11L21 14L18 17Z" fill="white"/>
</svg>
