<svg width="56" height="50" viewBox="0 0 56 50" fill="none" xmlns="http://www.w3.org/2000/svg">
<path d="M46.75 21.25H9.25C8.55964 21.25 8 21.8096 8 22.5V48.75C8 49.4404 8.55964 50 9.25 50H46.75C47.4404 50 48 49.4404 48 48.75V22.5C48 21.8096 47.4404 21.25 46.75 21.25Z" fill="white"/>
<path d="M23 50V36.25C23 35.5596 23.5596 35 24.25 35H31.75C32.4404 35 33 35.5596 33 36.25V50H23Z" fill="#B43717"/>
<path d="M27.0896 0.967662C27.5831 0.443071 28.4169 0.443071 28.9104 0.967662L49.8338 23.2061C50.5843 24.0038 50.0186 25.3126 48.9234 25.3126H7.07671C5.98133 25.3126 5.41572 24.0038 6.16631 23.2061L27.0896 0.967662Z" fill="#FAB49E"/>
</svg>
