<svg width="118" height="116" viewBox="0 0 118 116" fill="none" xmlns="http://www.w3.org/2000/svg">
<path d="M34.5882 23.8445L34.8378 24.0079H35.1361H82.5787H82.8652L83.1083 23.8561L106.007 9.55866C110.67 6.64759 116.715 9.99973 116.715 15.4963V81.7896L81.4689 114.931H34.8307L1 81.8016L1 14.8012C1 9.23639 7.1793 5.89649 11.8348 8.94498L34.5882 23.8445Z" stroke="#B8B8B8" stroke-width="2"/>
<rect x="30.6074" y="38.75" width="58.5" height="38.5" rx="7.25" stroke="#B8B8B8" stroke-width="1.5"/>
<circle cx="60.3574" cy="58.5" r="12.5" fill="#B8B8B8"/>
<path d="M52.2749 51.875C52.756 51.0417 53.9588 51.0417 54.44 51.875C54.9211 52.7083 54.3197 53.75 53.3574 53.75C52.3952 53.75 51.7938 52.7083 52.2749 51.875Z" fill="#F1F1F1"/>
<path d="M56.2438 56.125C58.0721 52.9583 62.6428 52.9583 64.471 56.125C66.2993 59.2917 64.014 63.25 60.3574 63.25C56.7009 63.25 54.4155 59.2917 56.2438 56.125Z" fill="#F1F1F1"/>
</svg>
