<svg width="428" height="139" viewBox="0 0 428 139" fill="none" xmlns="http://www.w3.org/2000/svg">
<path d="M304.357 54.9212L302.486 53.6956H300.248H127.752H125.602L123.779 54.8338L8.2648 126.957C8.12784 127.043 8.05603 127.045 8.02032 127.046C7.95972 127.046 7.86404 127.029 7.75751 126.97C7.65097 126.911 7.586 126.839 7.55429 126.787C7.53561 126.757 7.5 126.694 7.5 126.533V-154.101L7.5 -579.081H420.5L420.5 -154.101V130.049C420.5 130.215 420.463 130.277 420.445 130.306C420.414 130.357 420.347 130.43 420.238 130.489C420.128 130.548 420.031 130.564 419.971 130.562C419.937 130.561 419.865 130.558 419.726 130.467L304.357 54.9212Z" fill="#9D2D15" stroke="#9D2D15" stroke-width="15"/>
</svg>
