<svg width="195" height="220" viewBox="0 0 195 220" fill="none" xmlns="http://www.w3.org/2000/svg">
<g filter="url(#filter0_d_955_5439)">
<path d="M39.8095 78.7559C107.663 100.3 139.286 122.236 193.849 164.188L120.942 202.885C81.9168 173.593 55.5282 158.378 2.04742 132.969L39.8095 78.7559Z" fill="#952908"/>
<path d="M128.419 118.388C158.389 110.807 171.779 103.244 194.41 84.9253V163.814C194.702 165.083 180.389 180.639 163.751 189.425C147.114 198.212 135.34 207.827 121.503 203.072C107.666 198.317 128.419 118.388 128.419 118.388Z" fill="#B43717"/>
<path d="M157.021 89.4117L163.751 84.3643C167.667 88.8292 169.203 91.8206 171.042 97.824V181.2C170.259 183.533 169.748 184.802 168.051 186.621C165.768 188.548 164.51 189.429 162.443 189.425C162.766 188.113 162.845 187.033 162.817 184.565V101.563C161.38 94.9167 159.92 92.697 157.021 89.4117Z" fill="white"/>
<path d="M0.17804 47.9109V41.5549C8.88708 26.1485 21.8137 17.5498 59.2513 1.17551C64.6483 0.206738 67.267 0.345593 71.5894 1.17551L188.427 68.8482C194.018 74.6408 194.036 76.5128 194.409 84.9252C172.996 104.023 162.641 111.866 132.719 120.444L0.17804 47.9109Z" fill="#D8491D"/>
<path d="M29.9016 24.9168C37.2253 15.6981 42.4831 12.9653 53.4562 11.457L174.407 81.1861C161.837 83.8537 157.023 87.0852 151.226 95.0197L29.9016 24.9168Z" fill="#FE5433"/>
<path d="M37.1923 24.5431L44.2961 18.3741L54.5778 14.2614C65.3879 8.04233 71.4466 5.14093 82.2451 3.04492C114.319 4.85764 132.742 18.1352 159.826 75.2042L142.44 85.6729C131.477 72.6947 123.608 28.5408 85.0492 16.8785C63.551 6.78373 45.9785 30.3383 37.1923 24.5431Z" fill="url(#paint0_linear_955_5439)"/>
<path d="M30.0886 15.3834L36.4446 11.6445C41.505 11.7968 43.3116 12.1808 44.2961 13.5139L37.0054 17.4397C35.7519 16.2975 34.4408 15.7999 30.0886 15.3834Z" fill="white"/>
<path d="M0.152895 48.5245C0.164072 42.7682 6.40239 39.1827 11.3819 42.0705L125.156 108.053C127.414 109.363 128.826 111.756 128.88 114.366L130.557 195.112C130.681 201.115 124.036 204.808 118.998 201.543C82.8791 178.136 50.6023 157.892 4.08245 133.944C1.57916 132.656 -0.00545284 130.074 1.41005e-05 127.258L0.152895 48.5245Z" fill="#9D2D15"/>
<g filter="url(#filter1_d_955_5439)">
<path d="M57.0092 105.151L57.3979 105.956L58.164 106.416L74.4069 116.176L75.1427 116.618L76.001 116.603L86.7823 116.419C86.847 116.418 86.8722 116.432 86.8841 116.439C86.9053 116.451 86.9345 116.477 86.9588 116.519C86.9832 116.561 86.9904 116.599 86.9908 116.623C86.9908 116.637 86.99 116.666 86.9568 116.722L73.8973 138.456L57.1147 142.096L42.9371 133.578L38.712 117.357L51.9334 95.3533C51.9673 95.2962 51.9925 95.2826 52.0049 95.2767C52.026 95.2655 52.0636 95.2543 52.1135 95.2567C52.163 95.2587 52.1998 95.2735 52.2201 95.2862C52.2313 95.2934 52.2553 95.3094 52.2841 95.3693L57.0092 105.151Z" fill="white" stroke="white" stroke-width="5"/>
<path d="M70.2344 126.413L52.7585 115.064L49.2844 120.414L66.7602 131.763L70.2344 126.413Z" fill="#D8491D"/>
<path d="M62.7592 112.939L51.4102 130.415L56.76 133.889L68.1089 116.413L62.7592 112.939Z" fill="#9D2D15"/>
</g>
</g>
<defs>
<filter id="filter0_d_955_5439" x="0" y="0.5" width="194.414" height="218.832" filterUnits="userSpaceOnUse" color-interpolation-filters="sRGB">
<feFlood flood-opacity="0" result="BackgroundImageFix"/>
<feColorMatrix in="SourceAlpha" type="matrix" values="0 0 0 0 0 0 0 0 0 0 0 0 0 0 0 0 0 0 127 0" result="hardAlpha"/>
<feOffset dy="15"/>
<feComposite in2="hardAlpha" operator="out"/>
<feColorMatrix type="matrix" values="0 0 0 0 0 0 0 0 0 0 0 0 0 0 0 0 0 0 0.1 0"/>
<feBlend mode="normal" in2="BackgroundImageFix" result="effect1_dropShadow_955_5439"/>
<feBlend mode="normal" in="SourceGraphic" in2="effect1_dropShadow_955_5439" result="shape"/>
</filter>
<filter id="filter1_d_955_5439" x="36.0279" y="92.7563" width="53.4629" height="55.9932" filterUnits="userSpaceOnUse" color-interpolation-filters="sRGB">
<feFlood flood-opacity="0" result="BackgroundImageFix"/>
<feColorMatrix in="SourceAlpha" type="matrix" values="0 0 0 0 0 0 0 0 0 0 0 0 0 0 0 0 0 0 127 0" result="hardAlpha"/>
<feOffset dy="4"/>
<feComposite in2="hardAlpha" operator="out"/>
<feColorMatrix type="matrix" values="0 0 0 0 0 0 0 0 0 0 0 0 0 0 0 0 0 0 0.25 0"/>
<feBlend mode="normal" in2="BackgroundImageFix" result="effect1_dropShadow_955_5439"/>
<feBlend mode="normal" in="SourceGraphic" in2="effect1_dropShadow_955_5439" result="shape"/>
</filter>
<linearGradient id="paint0_linear_955_5439" x1="19.6199" y1="3.04492" x2="168.051" y2="109.975" gradientUnits="userSpaceOnUse">
<stop stop-color="#952908"/>
<stop offset="0.473958" stop-color="#D8491D"/>
<stop offset="1" stop-color="#952908"/>
</linearGradient>
</defs>
</svg>
