<svg width="35" height="36" viewBox="0 0 35 36" fill="none" xmlns="http://www.w3.org/2000/svg">
<g clip-path="url(#clip0_955_5752)">
<path d="M17.5 22.4561C19.9162 22.4561 21.875 20.4973 21.875 18.0811C21.875 15.6648 19.9162 13.7061 17.5 13.7061C15.0838 13.7061 13.125 15.6648 13.125 18.0811C13.125 20.4973 15.0838 22.4561 17.5 22.4561Z" stroke="white" stroke-width="3" stroke-linecap="round" stroke-linejoin="round"/>
<path d="M28.2917 22.4562C28.0976 22.8961 28.0397 23.384 28.1254 23.8571C28.2112 24.3302 28.4368 24.7667 28.773 25.1104L28.8605 25.1979C29.1316 25.4688 29.3468 25.7904 29.4935 26.1445C29.6403 26.4986 29.7159 26.8781 29.7159 27.2614C29.7159 27.6447 29.6403 28.0243 29.4935 28.3783C29.3468 28.7324 29.1316 29.0541 28.8605 29.325C28.5896 29.5961 28.2679 29.8113 27.9138 29.9581C27.5597 30.1048 27.1802 30.1804 26.7969 30.1804C26.4136 30.1804 26.0341 30.1048 25.68 29.9581C25.3259 29.8113 25.0043 29.5961 24.7334 29.325L24.6459 29.2375C24.3022 28.9013 23.8656 28.6757 23.3926 28.59C22.9195 28.5042 22.4316 28.5621 21.9917 28.7562C21.5604 28.9411 21.1925 29.248 20.9334 29.6393C20.6743 30.0305 20.5352 30.489 20.5334 30.9583V31.2062C20.5334 31.9798 20.2261 32.7216 19.6791 33.2686C19.1321 33.8156 18.3903 34.1229 17.6167 34.1229C16.8432 34.1229 16.1013 33.8156 15.5543 33.2686C15.0073 32.7216 14.7 31.9798 14.7 31.2062V31.075C14.6887 30.5923 14.5325 30.1241 14.2516 29.7314C13.9707 29.3387 13.5782 29.0395 13.125 28.8729C12.6852 28.6788 12.1973 28.6208 11.7242 28.7066C11.2511 28.7924 10.8146 29.0179 10.4709 29.3541L10.3834 29.4416C10.1125 29.7128 9.79082 29.9279 9.43674 30.0747C9.08266 30.2215 8.70313 30.2971 8.31983 30.2971C7.93654 30.2971 7.557 30.2215 7.20292 30.0747C6.84885 29.9279 6.52717 29.7128 6.25629 29.4416C5.98511 29.1708 5.76998 28.8491 5.6232 28.495C5.47642 28.1409 5.40087 27.7614 5.40087 27.3781C5.40087 26.9948 5.47642 26.6153 5.6232 26.2612C5.76998 25.9071 5.98511 25.5854 6.25629 25.3145L6.34379 25.227C6.67999 24.8834 6.90552 24.4468 6.9913 23.9737C7.07707 23.5007 7.01917 23.0127 6.82504 22.5729C6.64018 22.1416 6.33323 21.7737 5.94197 21.5146C5.55071 21.2555 5.09223 21.1164 4.62296 21.1145H4.37504C3.60149 21.1145 2.85963 20.8073 2.31265 20.2603C1.76566 19.7133 1.45837 18.9714 1.45837 18.1979C1.45837 17.4243 1.76566 16.6825 2.31265 16.1355C2.85963 15.5885 3.60149 15.2812 4.37504 15.2812H4.50629C4.98899 15.2699 5.45713 15.1137 5.84985 14.8328C6.24257 14.5519 6.54171 14.1594 6.70837 13.7062C6.9025 13.2664 6.96041 12.7784 6.87463 12.3054C6.78885 11.8323 6.56332 11.3957 6.22712 11.0521L6.13962 10.9646C5.86844 10.6937 5.65331 10.372 5.50653 10.0179C5.35975 9.66384 5.2842 9.2843 5.2842 8.90101C5.2842 8.51771 5.35975 8.13818 5.50653 7.7841C5.65331 7.43002 5.86844 7.10835 6.13962 6.83747C6.4105 6.56629 6.73218 6.35116 7.08626 6.20438C7.44033 6.0576 7.81987 5.98205 8.20317 5.98205C8.58646 5.98205 8.966 6.0576 9.32007 6.20438C9.67415 6.35116 9.99583 6.56629 10.2667 6.83747L10.3542 6.92497C10.6979 7.26117 11.1344 7.4867 11.6075 7.57247C12.0806 7.65825 12.5685 7.60034 13.0084 7.40622H13.125C13.5564 7.22135 13.9242 6.9144 14.1833 6.52315C14.4425 6.13189 14.5815 5.67341 14.5834 5.20413V4.95622C14.5834 4.18267 14.8907 3.4408 15.4376 2.89382C15.9846 2.34684 16.7265 2.03955 17.5 2.03955C18.2736 2.03955 19.0155 2.34684 19.5624 2.89382C20.1094 3.4408 20.4167 4.18267 20.4167 4.95622V5.08747C20.4186 5.55674 20.5576 6.01522 20.8167 6.40648C21.0758 6.79774 21.4437 7.10469 21.875 7.28955C22.3149 7.48368 22.8028 7.54158 23.2759 7.45581C23.749 7.37003 24.1855 7.1445 24.5292 6.8083L24.6167 6.7208C24.8876 6.44962 25.2093 6.23449 25.5633 6.08771C25.9174 5.94093 26.297 5.86538 26.6802 5.86538C27.0635 5.86538 27.4431 5.94093 27.7972 6.08771C28.1512 6.23449 28.4729 6.44962 28.7438 6.7208C29.015 6.99168 29.2301 7.31336 29.3769 7.66743C29.5237 8.02151 29.5992 8.40105 29.5992 8.78434C29.5992 9.16764 29.5237 9.54717 29.3769 9.90125C29.2301 10.2553 29.015 10.577 28.7438 10.8479L28.6563 10.9354C28.3201 11.2791 28.0946 11.7156 28.0088 12.1887C27.923 12.6618 27.9809 13.1497 28.175 13.5896V13.7062C28.3599 14.1375 28.6669 14.5054 29.0581 14.7645C29.4494 15.0236 29.9079 15.1627 30.3771 15.1646H30.625C31.3986 15.1646 32.1405 15.4718 32.6874 16.0188C33.2344 16.5658 33.5417 17.3077 33.5417 18.0812C33.5417 18.8548 33.2344 19.5966 32.6874 20.1436C32.1405 20.6906 31.3986 20.9979 30.625 20.9979H30.4938C30.0245 20.9998 29.566 21.1388 29.1748 21.3979C28.7835 21.657 28.4766 22.0249 28.2917 22.4562Z" stroke="white" stroke-width="3" stroke-linecap="round" stroke-linejoin="round"/>
</g>
<defs>
<clipPath id="clip0_955_5752">
<rect width="35" height="35" fill="white" transform="translate(0 0.581055)"/>
</clipPath>
</defs>
</svg>
