<svg width="328" height="280" viewBox="0 0 328 280" fill="none" xmlns="http://www.w3.org/2000/svg">
<g clip-path="url(#clip0_955_5658)">
<path d="M168.888 139.418C170.06 144.115 168.492 148.522 165.386 149.262C162.281 150.001 158.814 146.793 157.642 142.095C157.147 140.224 157.125 138.264 157.577 136.377L152.872 116.414L162.652 114.419L166.252 134.311C167.543 135.783 168.447 137.534 168.888 139.418Z" fill="#FDADB0"/>
<path d="M127.886 253.566L128.488 266.65L127.885 270.27L129.997 274.494L146.591 276.304L147.496 268.46L138.746 263.934L138.492 256.542L127.886 253.566Z" fill="#FDADB0"/>
<path d="M145.384 273.287L144.479 274.494L127.101 269.486C127.101 269.486 127.885 277.209 127.885 278.718C127.885 280.226 156.547 280.226 160.86 279.623C165.173 279.02 163.788 275.097 163.788 275.097L145.902 266.631L145.384 273.287Z" fill="#2F2E43"/>
<path d="M84.6533 243.935L81.0369 256.523L79.3066 259.76L79.9557 264.438L95.0975 271.463L98.4655 264.321L91.6244 257.233L95.9158 246.106L84.6533 243.935Z" fill="#FDADB0"/>
<path d="M94.9197 268.219L93.676 269.072L78.8147 258.767C78.8147 258.767 77.0858 266.335 76.603 267.764C76.1203 269.193 103.275 278.366 107.554 279.174C111.834 279.983 111.777 275.824 111.777 275.824L97.5408 262.078L94.9197 268.219Z" fill="#2F2E43"/>
<path d="M129.056 37.5571L129.689 47.8472L110.475 48.8219L116.425 35.2646L129.056 37.5571Z" fill="#FDADB0"/>
<path d="M130.18 46.3081C125.029 48.6053 116.792 47.9768 107.456 46.3081L105.997 110.984C105.997 110.984 135.2 116.855 145.24 106.022L139.956 53.1779L130.18 46.3081Z" fill="#E0E1E2"/>
<path d="M142.07 107.608L100.843 111.683L80.4981 249.826H96.0872L122.781 155.168L124.895 262.442H139.163L151.317 131.124L142.07 107.608Z" fill="#2F2E43"/>
<path d="M113.318 42.3447L99.4659 50.5417C94.2186 53.6469 91.7453 59.9153 93.4586 65.7669L104.164 102.331C104.164 102.331 86.7311 132.28 92.3958 134.922C105.125 140.86 124.12 139.414 124.12 139.414L119.875 67.7101L113.318 42.3447Z" fill="#3F3D58"/>
<path d="M129.578 46.0361L145.24 52.1209L148.939 97.303L159.299 133.701C141.753 140.106 143.391 137.121 143.391 137.121L140.484 74.3156L129.578 46.0361Z" fill="#3F3D58"/>
<path d="M152.458 132.932L152.404 132.685L136.394 58.636C135.947 56.567 136.519 54.4931 137.964 52.9457C139.408 51.3981 141.438 50.6853 143.534 50.9899C146.118 51.3656 148.187 53.2479 148.804 55.7854L166.389 128.07L152.458 132.932Z" fill="#3F3D58"/>
<path d="M120.718 40.291C129.328 40.291 136.307 33.3117 136.307 24.7022C136.307 16.0927 129.328 9.11328 120.718 9.11328C112.109 9.11328 105.129 16.0927 105.129 24.7022C105.129 33.3117 112.109 40.291 120.718 40.291Z" fill="#FDADB0"/>
<path d="M128.135 4.50565C131.568 5.71248 133.533 6.40305 135.333 8.13692C138.373 11.0657 138.875 14.9796 139.341 18.6163C139.706 21.4612 140.177 25.1396 138.511 29.3422C137.943 30.7764 135.185 37.1662 129.906 37.9738C128.87 38.1323 126.436 38.174 127.137 37.6561C133.63 32.8628 136.401 29.969 136.173 22.5818C136.032 17.9916 129.018 13.0358 124.854 12.1449C123.099 11.7696 120.764 12.1124 119.089 13.4874C115.588 16.361 115.738 28.2438 112.047 30.7278C110.529 31.7494 111.54 24.5584 110.471 25.7245C108.36 28.0255 109.714 31.5492 110.093 32.8911C111.892 39.2564 115.284 39.8794 117.041 45.315C118.937 51.1835 116.55 56.7086 115.984 58.0188C114.999 60.298 113.309 64.2095 109.447 66.0861C104.546 68.468 100.683 65.3663 98.4038 68.0254C97.13 69.5119 97.819 71.0863 95.5183 75.71C94.7673 77.2194 94.3918 77.9741 94.0593 77.9473C92.4861 77.8206 89.9389 65.2275 94.0586 53.4995C95.7875 48.5777 97.4813 43.7556 102.022 39.9849C104.422 37.9914 106.435 37.2741 107.008 34.9461C107.827 31.6202 104.427 30.2007 103.746 24.9531C103.28 21.3642 102.953 16.2314 104.22 12.9416C105.417 9.8348 106.456 7.13792 109.174 4.6927C109.827 4.10538 115.099 0.11318 120.688 0.000566933C123.261 -0.051202 125.151 3.45713 128.135 4.50565Z" fill="#2F2E43"/>
<path d="M161.075 140.682C182.132 140.682 199.203 123.611 199.203 102.554C199.203 81.4963 182.132 64.4258 161.075 64.4258C140.017 64.4258 122.947 81.4963 122.947 102.554C122.947 123.611 140.017 140.682 161.075 140.682Z" fill="#FE5433"/>
<path d="M151.427 127.429C153.741 119.08 156.056 110.731 158.371 102.382C158.863 100.604 159.245 98.6299 160.373 97.1214C161.245 95.9552 162.616 95.1922 164.068 95.6718C167.528 96.8152 167.472 101.809 167.411 104.722C167.318 109.121 166.325 113.509 164.498 117.512C164.247 118.061 164.341 118.716 164.899 119.042C165.38 119.323 166.177 119.193 166.429 118.641C168.259 114.632 169.346 110.341 169.6 105.939C169.818 102.14 169.834 97.1302 166.542 94.5411C164.932 93.2756 162.878 92.8997 160.992 93.7744C159.127 94.6387 157.989 96.4283 157.273 98.2813C156.476 100.342 156.002 102.551 155.413 104.677L153.514 111.528C152.099 116.63 150.685 121.732 149.27 126.835C148.885 128.224 151.042 128.816 151.427 127.429Z" fill="white"/>
<path d="M161.344 115.801C162.776 110.425 163.508 104.866 163.514 99.3028C163.515 97.8637 161.279 97.8615 161.277 99.3028C161.271 104.678 160.571 110.013 159.187 115.207C158.816 116.599 160.973 117.193 161.344 115.801Z" fill="white"/>
<path d="M138.352 115.737C139.851 108.51 141.473 101.26 143.554 94.1755C145.24 88.4309 148.149 81.921 154.288 79.8381C157.336 78.8037 160.641 78.9704 163.761 79.5706C166.855 80.1658 169.989 81.0516 172.841 82.4065C175.541 83.6891 178.038 85.4569 179.816 87.8922C181.57 90.2962 182.662 93.0861 183.251 95.9913C184.618 102.733 183.009 109.621 181.207 116.119C180.967 116.984 180.722 117.847 180.477 118.71C180.082 120.097 182.24 120.689 182.633 119.305C184.625 112.299 186.693 104.98 185.766 97.6278C185.364 94.448 184.472 91.3242 182.883 88.5255C181.254 85.6577 178.904 83.3135 176.086 81.6095C173.245 79.8911 170.046 78.7972 166.843 77.9762C163.441 77.1041 159.9 76.5673 156.396 77.0547C153.092 77.5142 150.115 79.0808 147.775 81.4461C145.378 83.8693 143.757 86.8972 142.561 90.0617C141.242 93.5518 140.38 97.2181 139.473 100.831C138.514 104.65 137.619 108.485 136.789 112.334C136.587 113.269 136.39 114.205 136.196 115.142C136.073 115.733 136.368 116.35 136.977 116.518C137.531 116.67 138.229 116.331 138.352 115.737Z" fill="white"/>
<path d="M149.879 92.6184C151.623 87.3263 157.239 84.0501 162.676 84.4131C168.703 84.8156 173.927 89.2172 176.043 94.7561C177.3 98.0474 177.669 101.67 177.141 105.152C177.05 105.749 177.291 106.355 177.922 106.528C178.451 106.673 179.206 106.348 179.297 105.747C180.354 98.7861 178.412 91.2013 172.934 86.4942C170.365 84.287 167.219 82.7593 163.851 82.3018C160.612 81.862 157.347 82.4614 154.48 84.0382C151.334 85.7678 148.849 88.6029 147.722 92.0238C147.27 93.3939 149.429 93.9812 149.879 92.6184Z" fill="white"/>
<path d="M145.12 102.875C144.64 108.612 143.194 114.285 140.854 119.547C140.609 120.098 140.694 120.748 141.256 121.077C141.732 121.355 142.539 121.23 142.785 120.675C145.296 115.028 146.841 109.035 147.356 102.875C147.407 102.272 146.806 101.757 146.238 101.757C145.591 101.757 145.171 102.271 145.12 102.875Z" fill="white"/>
<path d="M172.134 109.279C171.654 115.016 170.208 120.689 167.869 125.95C167.623 126.502 167.708 127.152 168.27 127.48C168.746 127.759 169.553 127.634 169.8 127.079C172.311 121.432 173.855 115.439 174.371 109.279C174.421 108.676 173.821 108.161 173.252 108.161C172.606 108.161 172.185 108.675 172.134 109.279Z" fill="white"/>
<path d="M150.747 104.828C152.185 99.1258 154.568 93.7217 157.8 88.809C158.594 87.6032 156.658 86.4816 155.869 87.6802C152.54 92.7403 150.072 98.3604 148.59 104.234C148.238 105.63 150.395 106.225 150.747 104.828Z" fill="white"/>
<path d="M0.366882 279.278C0.366882 279.574 0.603958 279.811 0.89918 279.811H327.101C327.396 279.811 327.633 279.574 327.633 279.278C327.633 278.983 327.396 278.746 327.101 278.746H0.89918C0.603958 278.746 0.366882 278.983 0.366882 279.278Z" fill="#3F3D58"/>
<path d="M128.891 94.7781C133.706 94.2715 137.852 96.438 138.151 99.6165C138.451 102.795 134.792 105.782 129.976 106.288C128.055 106.517 126.11 106.266 124.304 105.555L103.881 107.434L103.268 97.472L123.467 96.6774C125.104 95.6042 126.965 94.953 128.891 94.7781Z" fill="#FDADB0"/>
<path d="M104.009 51.0147C99.0651 50.3184 94.427 53.5689 93.3995 58.4546C89.8146 75.4995 83.3814 111.807 93.4854 112.414C106.697 113.206 119.379 110.036 119.379 110.036L116.209 91.8044L105.904 90.7475L111.965 62.3956C113.116 57.0123 109.46 51.7825 104.009 51.0147Z" fill="#3F3D58"/>
</g>
<defs>
<clipPath id="clip0_955_5658">
<rect width="327.266" height="280" fill="white" transform="translate(0.366882)"/>
</clipPath>
</defs>
</svg>
