<svg width="290" height="220" viewBox="0 0 368 280" fill="none" xmlns="http://www.w3.org/2000/svg">
<g clip-path="url(#clip0_955_5523)">
<path d="M223.005 84.3755C223.462 84.3965 223.915 84.2764 224.302 84.0313C224.689 83.7863 224.992 83.4283 225.168 83.0057C225.345 82.5831 225.388 82.1164 225.29 81.6688C225.193 81.2212 224.96 80.8144 224.624 80.5035C224.568 80.2796 224.527 80.1188 224.471 79.8949C224.491 79.8462 224.511 79.7975 224.532 79.7488C226.588 74.8447 233.559 74.8785 235.598 79.7899C237.408 84.1491 239.712 88.5156 240.279 93.1247C240.529 95.162 240.424 97.2272 239.968 99.2285C244.219 89.9555 246.426 79.8768 246.441 69.6757C246.441 67.1159 246.299 64.5581 246.015 62.0141C245.779 59.9286 245.453 57.858 245.035 55.8021C242.757 44.6475 237.865 34.1925 230.761 25.2956C227.323 23.4197 224.543 20.5349 222.794 17.03C222.161 15.7701 221.714 14.4252 221.466 13.0371C221.853 13.0879 222.928 7.18113 222.635 6.81872C223.176 5.99854 224.143 5.59083 224.734 4.79049C227.67 0.810123 231.714 1.50512 233.826 6.91413C238.337 9.19074 238.38 12.9663 235.613 16.5976C233.852 18.9078 233.61 22.0339 232.065 24.5071C232.224 24.7106 232.389 24.9078 232.548 25.1112C235.454 28.8476 237.986 32.8597 240.109 37.0901C239.509 32.3982 240.395 26.7457 241.907 23.1021C243.628 18.9505 246.854 15.454 249.694 11.865C253.106 7.55401 260.103 9.43541 260.704 14.9002C260.71 14.9532 260.715 15.0061 260.721 15.0589C260.299 15.2969 259.886 15.5496 259.482 15.8169C258.974 16.156 258.581 16.6406 258.353 17.2072C258.126 17.7737 258.075 18.3958 258.207 18.9919C258.339 19.588 258.648 20.1303 259.094 20.5477C259.539 20.9651 260.1 21.2383 260.704 21.3313L260.765 21.3408C260.615 22.8614 260.349 24.3684 259.971 25.8488C263.615 39.9414 255.747 45.0742 244.514 45.3048C244.266 45.432 244.024 45.5591 243.776 45.68C245.909 51.7248 247.247 58.0213 247.757 64.4111C248.045 68.181 248.028 71.9679 247.706 75.735L247.725 75.6015C248.539 71.4126 250.773 67.6329 254.051 64.9007C258.92 60.9014 265.798 59.4287 271.05 56.214C273.579 54.6666 276.818 56.6663 276.377 59.5975C276.37 59.6443 276.363 59.6911 276.356 59.7379C275.573 60.0568 274.81 60.4241 274.073 60.8378C273.651 61.0759 273.238 61.3285 272.834 61.5957C272.326 61.9349 271.933 62.4195 271.706 62.9861C271.478 63.5526 271.427 64.1747 271.559 64.7708C271.691 65.3669 272 65.9092 272.446 66.3266C272.891 66.7441 273.452 67.0172 274.056 67.1102L274.118 67.1197C274.162 67.1261 274.2 67.1324 274.245 67.1388C272.907 70.3331 271.029 73.2732 268.694 75.8304C266.416 88.1327 256.629 89.2999 246.161 85.7174H246.154C245.006 90.7086 243.342 95.5669 241.189 100.214H223.449C223.386 100.017 223.329 99.8135 223.271 99.6163C224.913 99.7196 226.562 99.6214 228.18 99.3239C226.864 97.7089 225.548 96.0812 224.231 94.4662C224.202 94.4361 224.174 94.4042 224.149 94.3708C223.481 93.5443 222.807 92.7241 222.14 91.8976L222.139 91.8966C222.104 89.3629 222.394 86.8352 223.004 84.3758L223.005 84.3755Z" fill="#F2F2F2"/>
<path d="M279.96 38.9767C276.662 26.951 303.265 16.6387 310.251 26.3231C311.223 24.9462 314.813 24.1099 316.46 24.5323C318.107 24.9546 319.492 26.0105 320.844 27.0326C322.702 28.4602 324.628 29.9384 325.768 31.991C326.917 34.0352 327.095 36.8228 325.549 38.5966C324.324 40.0073 320.709 40.9196 318.867 41.2912C317.583 41.5531 316.502 41.7643 315.573 41.9163C314.729 40.7003 314.34 39.226 314.475 37.7519C313.849 38.1738 313.325 38.7289 312.94 39.3773C312.554 40.0257 312.317 40.7514 312.245 41.5024C312.219 41.8149 322.626 80.1053 322.626 80.1053C321.376 80.817 320.061 81.4081 318.698 81.8707C316.003 77.752 313.939 73.2535 312.574 68.5244C312.26 71.6866 312.3 74.874 312.692 78.0274C312.901 79.7956 313.2 81.5521 313.588 83.2898C301.221 85.9591 282.621 85.0807 274.529 73.7278C274.527 73.6809 274.526 73.6339 274.525 73.5868C274.518 73.1387 274.357 72.7067 274.067 72.3649C273.777 72.023 273.377 71.7925 272.936 71.7129C272.495 71.6333 272.04 71.7095 271.649 71.9285C271.258 72.1474 270.955 72.4955 270.793 72.9131C270.597 73.414 270.416 73.8476 270.255 74.1924C267.898 65.7622 270.947 56.0059 279.96 38.9767Z" fill="#2F2E41"/>
<path d="M258.916 240.592V240.986C258.901 240.855 258.901 240.723 258.916 240.592Z" fill="#2F2E41"/>
<path d="M271.027 172.534C271.341 172.449 271.662 172.387 271.985 172.348C271.614 172.409 271.294 172.471 271.027 172.534Z" fill="#2F2E41"/>
<path d="M270.747 172.606C270.832 172.582 270.926 172.558 271.027 172.534C270.933 172.559 270.843 172.577 270.747 172.606Z" fill="#2F2E41"/>
<path d="M360.219 279.998H314.89C314.244 279.482 313.794 278.759 313.617 277.951C313.441 277.143 313.548 276.298 313.92 275.559C315.158 272.719 312.732 270.124 312.732 270.124C311.908 269.159 311.335 268.006 311.064 266.766C310.793 265.527 310.832 264.239 311.178 263.018C312.379 258.824 307.673 246.984 307.673 246.984C307.673 246.984 305.135 262.272 302.026 279.998H258.916C258.194 278.768 257.813 277.368 257.813 275.941C257.813 274.515 258.194 273.114 258.916 271.884C261.429 267.624 258.916 266.807 258.916 266.807C258.916 266.807 256.404 262.041 258.916 258.579C261.429 255.118 258.916 240.986 258.916 240.986C259.011 241.611 259.727 240.475 260.829 238.093C262.506 234.469 265.07 227.951 267.66 220.385C269.512 214.985 271.379 209.044 272.939 203.234H272.943C273.352 201.708 273.739 200.196 274.105 198.698C274.821 195.759 275.435 192.904 275.9 190.223C276.912 184.448 277.245 179.487 276.468 176.26C275.825 173.575 274.416 172.095 271.985 172.349C273.288 172.133 275.196 171.928 277.548 171.735C277.972 171.701 278.411 171.667 278.866 171.629C296.406 170.304 334.041 169.542 334.041 169.542L345.568 190.185L360.166 216.333C360.166 216.333 359.769 251.411 360.219 279.998Z" fill="#2F2E41"/>
<path d="M311.837 80.3225L285.279 74.689L280.006 85.3031L262.249 95.5838C262.249 95.5838 273.695 142.385 273.63 148.968C273.464 165.679 246.724 203.142 266.922 200.26C287.119 197.378 291.221 185.306 297.705 187.215C303.553 188.936 310.693 196.594 315.473 191.117C320.253 185.64 321.937 191.965 324.96 192.184C326.396 192.287 325.531 185.268 329.145 192.402C332.759 199.536 351.924 189.933 345.429 183.437C334.611 172.619 332.412 92.8714 332.412 92.8714L320.369 89.1659L311.837 80.3225Z" fill="#E6E6E6"/>
<path d="M261.746 250.286C262.813 249.013 263.342 247.375 263.219 245.718C263.097 244.062 262.333 242.519 261.09 241.418C260.834 241.198 260.56 241 260.271 240.825L264.711 219.032L254.446 212.889L251.591 243.4C250.959 244.653 250.76 246.081 251.025 247.46C251.29 248.839 252.004 250.091 253.056 251.021C253.66 251.545 254.36 251.945 255.118 252.197C255.876 252.45 256.676 252.551 257.473 252.495C258.27 252.438 259.048 252.225 259.763 251.868C260.478 251.511 261.115 251.017 261.639 250.413C261.675 250.371 261.711 250.329 261.746 250.286Z" fill="#A0616A"/>
<path d="M293.136 135.125C293.072 134.425 292.178 134.107 290.94 133.667C289.696 133.284 288.514 132.724 287.43 132.005C284.688 130.025 285.767 127.953 287.259 125.09C287.551 124.534 287.854 123.954 288.138 123.352C288.982 121.568 287.638 114.21 284.135 101.479C283.056 97.5595 283.06 94.7913 282.314 92.9547C281.571 91.118 280.083 90.2129 276.027 90.0236C271.125 89.7761 266.325 91.4825 262.679 94.7686C262.58 94.8557 262.478 94.9504 262.379 95.0412C262.194 95.2154 262.012 95.3934 261.834 95.5752C258.462 98.9674 256.533 103.532 256.449 108.314L256.43 109.128L255.593 148.027L253.242 182.162L250 229.184L252.401 229.302L261.982 229.779L263.144 229.835L265.901 218.27L269.218 204.354L270.438 199.241L274.221 183.382L275.986 175.971L277.065 171.445L277.504 169.597L279.648 160.615C279.697 160.426 284.627 140.972 290.311 137.719C292.432 136.508 293.197 135.803 293.136 135.125Z" fill="#E6E6E6"/>
<path d="M357.395 250.054C356.197 248.904 355.496 247.332 355.44 245.672C355.384 244.012 355.978 242.396 357.095 241.168C357.326 240.922 357.577 240.695 357.846 240.49L351.091 219.301L360.637 212.09L366.752 242.118C367.515 243.296 367.866 244.695 367.75 246.094C367.635 247.493 367.06 248.815 366.114 249.853C365.57 250.438 364.917 250.911 364.19 251.243C363.464 251.576 362.679 251.763 361.881 251.792C361.082 251.821 360.286 251.693 359.537 251.415C358.788 251.137 358.101 250.714 357.516 250.17C357.475 250.132 357.435 250.093 357.395 250.054Z" fill="#A0616A"/>
<path d="M362.065 204.075C362.065 204.075 354.62 177.88 356.89 175.044C359.161 172.208 352.455 171.654 355.345 166.373C358.234 161.091 354.246 160.208 354.246 160.208L352.081 148.065L348.212 118.239L348.095 117.352L346.969 108.675C346.655 106.196 345.844 103.807 344.585 101.649C343.326 99.4908 341.645 97.6089 339.642 96.1156C339.539 96.0373 339.435 95.9621 339.33 95.8869C338.854 95.5439 338.367 95.2262 337.87 94.9337C334.156 92.7424 329.794 91.9139 325.535 92.5907C317.51 93.8405 320.008 96.8332 318.706 104.85C316.591 117.886 316.042 125.344 317.074 127.029C317.421 127.597 317.786 128.14 318.134 128.661C319.926 131.351 321.221 133.291 318.707 135.559C317.705 136.388 316.59 137.07 315.396 137.585C314.214 138.157 313.358 138.568 313.37 139.271C313.383 139.953 314.219 140.568 316.456 141.544C319.167 142.73 322.078 147.216 324.463 151.798C326.355 155.491 328.043 159.285 329.518 163.164L350.015 220.812L353.358 230.213L354.512 230.031L363.982 228.529L366.358 228.153L362.065 204.075Z" fill="#E6E6E6"/>
<path d="M300.632 74.2912C312.599 74.2912 322.299 64.5905 322.299 52.6241C322.299 40.6577 312.599 30.957 300.632 30.957C288.666 30.957 278.965 40.6577 278.965 52.6241C278.965 64.5905 288.666 74.2912 300.632 74.2912Z" fill="#A0616A"/>
<path d="M268.134 40.6662C264.836 28.6405 291.439 18.3282 298.425 28.0125C299.397 26.6357 302.987 25.7994 304.634 26.2217C306.281 26.6441 307.666 27.7 309.018 28.7221C310.876 30.1496 312.802 31.6279 313.943 33.6805C315.091 35.7247 315.269 38.5122 313.723 40.2861C312.498 41.6967 308.883 42.609 307.041 42.9807C305.757 43.2425 304.676 43.4537 303.747 43.6057C302.903 42.3898 302.514 40.9154 302.649 39.4414C302.023 39.8632 301.499 40.4183 301.114 41.0667C300.728 41.7152 300.491 42.4409 300.419 43.1919C300.393 43.5044 310.8 81.7948 310.8 81.7948C309.55 82.5064 308.235 83.0975 306.872 83.5602C304.177 79.4414 302.113 74.943 300.748 70.2139C300.435 73.3761 300.474 76.5634 300.867 79.7168C301.075 81.4851 301.374 83.2415 301.762 84.9793C289.395 87.6486 270.795 86.7701 262.703 75.4173C262.701 75.3703 262.7 75.3233 262.699 75.2763C262.692 74.8282 262.531 74.3962 262.241 74.0543C261.951 73.7125 261.551 73.482 261.11 73.4024C260.669 73.3228 260.214 73.399 259.823 73.6179C259.432 73.8369 259.13 74.185 258.967 74.6026C258.771 75.1035 258.59 75.537 258.429 75.8819C256.072 67.4517 259.121 57.6954 268.134 40.6662Z" fill="#2F2E41"/>
<path d="M160.679 115.535C160.221 115.556 159.768 115.436 159.381 115.191C158.994 114.946 158.692 114.588 158.515 114.165C158.339 113.743 158.296 113.276 158.394 112.828C158.491 112.381 158.724 111.974 159.06 111.663C159.116 111.439 159.157 111.278 159.213 111.055C159.193 111.006 159.173 110.957 159.152 110.908C157.096 106.004 150.125 106.038 148.086 110.95C146.276 115.309 143.972 119.675 143.404 124.284C143.155 126.322 143.26 128.387 143.716 130.388C139.465 121.115 137.258 111.036 137.243 100.835C137.242 98.2756 137.385 95.7177 137.669 93.1738C137.905 91.0883 138.231 89.0176 138.649 86.9618C140.927 75.8072 145.819 65.3522 152.923 56.4553C156.361 54.5793 159.141 51.6946 160.889 48.1897C161.523 46.9298 161.97 45.5849 162.218 44.1967C161.83 44.2476 160.756 38.3408 161.048 37.9784C160.508 37.1582 159.541 36.7505 158.95 35.9502C156.014 31.9698 151.97 32.6648 149.858 38.0738C145.347 40.3504 145.304 44.126 148.071 47.7573C149.832 50.0675 150.074 53.1935 151.619 55.6668C151.46 55.8703 151.295 56.0674 151.136 56.2709C148.23 60.0073 145.698 64.0194 143.575 68.2498C144.175 63.5579 143.289 57.9054 141.777 54.2617C140.056 50.1102 136.83 46.6137 133.99 43.0247C130.578 38.7137 123.581 40.5951 122.98 46.0599C122.974 46.1128 122.968 46.1657 122.963 46.2186C123.385 46.4566 123.798 46.7093 124.202 46.9765C124.71 47.3157 125.103 47.8003 125.33 48.3669C125.558 48.9334 125.609 49.5555 125.477 50.1516C125.345 50.7476 125.036 51.2899 124.59 51.7074C124.145 52.1248 123.584 52.3979 122.98 52.4909L122.918 52.5005C123.069 54.0211 123.334 55.5281 123.713 57.0085C120.069 71.1011 127.936 76.2339 139.17 76.4645C139.418 76.5916 139.66 76.7188 139.908 76.8396C137.774 82.8844 136.437 89.181 135.927 95.5708C135.639 99.3406 135.656 103.128 135.978 106.895L135.959 106.761C135.145 102.572 132.911 98.7926 129.633 96.0604C124.764 92.0611 117.886 90.5883 112.634 87.3737C110.105 85.8262 106.865 87.826 107.307 90.7572C107.314 90.804 107.321 90.8508 107.328 90.8976C108.111 91.2164 108.873 91.5838 109.611 91.9975C110.033 92.2355 110.446 92.4882 110.85 92.7554C111.357 93.0946 111.751 93.5792 111.978 94.1458C112.206 94.7123 112.257 95.3344 112.125 95.9305C111.993 96.5265 111.684 97.0688 111.238 97.4863C110.793 97.9037 110.231 98.1769 109.628 98.2699L109.566 98.2794C109.522 98.2857 109.484 98.2921 109.439 98.2985C110.777 101.493 112.655 104.433 114.99 106.99C117.268 119.292 127.055 120.46 137.523 116.877H137.53C138.678 121.868 140.342 126.727 142.495 131.374H160.235C160.298 131.177 160.355 130.973 160.413 130.776C158.771 130.879 157.122 130.781 155.504 130.484C156.82 128.869 158.136 127.241 159.452 125.626C159.482 125.596 159.509 125.564 159.535 125.531C160.203 124.704 160.877 123.884 161.544 123.057L161.545 123.056C161.58 120.523 161.29 117.995 160.68 115.535L160.679 115.535Z" fill="#F2F2F2"/>
<path d="M77.9063 26.3237C77.5037 27.262 65.0895 27.1614 64.5209 27.9969C60.1372 34.447 75.9396 61.8906 71.5559 68.349L70.9452 69.0769C72.3753 68.4178 73.7491 67.6427 75.0528 66.7595C75.17 64.1159 75.2871 61.4639 75.4125 58.8203C76.7256 60.5 77.7854 62.3631 78.5581 64.3501C79.5788 63.6307 80.416 62.2969 84.7907 59.6736C86.5618 57.7281 88.6035 56.0474 90.8531 54.6832L77.9063 26.3237Z" fill="#2F2E41"/>
<path d="M86.921 79.1857C85.551 78.2933 83.988 77.7405 82.3616 77.5731C80.7353 77.4057 79.0924 77.6285 77.5694 78.2232C76.0464 78.8178 74.6872 79.7671 73.6045 80.9922C72.5219 82.2174 71.747 83.683 71.3441 85.2676L52.479 134.422L20.0519 116.013C19.9095 113.897 19.1007 111.88 17.7413 110.252C16.382 108.624 14.542 107.469 12.4853 106.951C10.4285 106.434 8.26071 106.581 6.29274 107.371C4.32477 108.162 2.65776 109.555 1.53077 111.352C0.403792 113.149 -0.125254 115.256 0.0195168 117.372C0.164287 119.488 0.975437 121.504 2.33662 123.13C3.69781 124.756 5.5391 125.91 7.59642 126.425C9.65373 126.94 11.8214 126.791 13.7884 125.998C20.6173 133.286 50.2229 163.169 62.4794 151.493C72.7816 141.679 87.6489 103.643 91.2277 90.5091C91.801 88.4088 91.6929 86.1807 90.9189 84.1458C90.145 82.1109 88.7451 80.3742 86.921 79.1857Z" fill="#FFB6B6"/>
<path d="M51.4973 153.553L57.4506 180.461L100.983 184.398L104.984 160.969L51.4973 153.553Z" fill="#FFB6B6"/>
<path d="M117.994 222.554C117.974 222.94 117.95 223.322 117.922 223.708C117.504 229.283 117.027 235.713 116.51 242.76C115.695 253.943 114.784 266.676 113.866 279.998H22.5565L40.265 226.771C40.265 226.771 47.4153 222.835 43.775 216.221C40.1347 209.608 47.2974 214.878 47.3641 205.433C47.4307 195.989 53.8492 185.941 53.8492 185.941L54.9031 171.641L55.5036 171.653L103.021 172.444L103.888 172.46L105.348 184.736C114.209 195.281 118.73 208.8 117.994 222.554Z" fill="#2F2E41"/>
<path d="M78.6673 66.1455L100.335 65.0293L110.4 80.932C110.4 80.932 129.336 84.0979 128.023 106.412C126.711 128.726 104.984 148.306 104.984 148.306L105.912 145.122L104.299 149.731L104.506 152.319L106.707 155.06L106.933 157.894L104.984 162.379C105.237 162.785 105.372 163.254 105.372 163.733C105.372 164.212 105.238 164.682 104.985 165.089C104.732 165.495 104.37 165.823 103.941 166.034C103.511 166.246 103.03 166.333 102.554 166.285L71.2452 163.147C70.5323 161.186 69.9604 158.84 67.1032 162.746L64.1538 162.46L51.8934 161.272L51.1718 158.643C50.7617 157.15 50.6978 155.582 50.9849 154.06C51.272 152.538 51.9026 151.101 52.8286 149.86C51.7636 146.525 52.0425 142.906 53.606 139.774L53.6646 139.657L54.9666 138.571C54.9666 138.571 40.7223 117.171 57.0743 101.053L63.6372 89.8963L70.9806 80.9371L78.6673 66.1455Z" fill="#FE5433"/>
<path d="M84.0601 56.7578C95.4081 56.7578 104.607 47.5584 104.607 36.2104C104.607 24.8624 95.4081 15.6631 84.0601 15.6631C72.7121 15.6631 63.5128 24.8624 63.5128 36.2104C63.5128 47.5584 72.7121 56.7578 84.0601 56.7578Z" fill="#FFB6B6"/>
<path d="M99.6659 65.8104C97.9927 64.4123 96.8281 62.5007 96.353 60.3726C95.973 62.9564 96.0723 65.5882 96.6459 68.136C95.5332 68.9726 94.454 69.7674 93.4333 70.4869C92.6606 68.4998 91.6008 66.6367 90.2878 64.957C90.1623 67.6006 90.0452 70.2526 89.928 72.8962C88.6244 73.7795 87.2506 74.5545 85.8204 75.2136L86.4311 74.4858C90.8148 68.0273 79.4707 56.1394 83.8544 49.6893C85.0842 47.8823 79.5293 33.6018 75.2962 32.9576C71.5315 32.3888 71.6905 33.4763 68.043 34.2711C67.6642 32.6913 67.0761 31.1692 66.2945 29.7451C66.5026 31.332 66.4546 32.942 66.1523 34.5137C64.8556 34.5639 63.8354 33.7376 62.4546 33.5265C53.6453 32.1796 54.5405 22.6509 56.9917 19.6308C59.4512 16.6191 67.6163 15.7156 71.3809 14.7368C71.7239 14.4022 72.5019 14.6113 72.845 14.2934C80.0597 7.69062 89.7089 6.59715 98.3923 9.52365C107.653 12.6445 113.426 18.6848 116.389 27.9967L117.239 35.4485C118.002 37.8446 117.042 48.993 116.389 51.4211C113.85 60.8595 108.443 56.1478 99.6659 65.8104Z" fill="#2F2E41"/>
<path d="M129.626 163.158L128.817 100.158C128.775 97.4885 127.685 94.9431 125.782 93.0705C123.88 91.1979 121.318 90.1484 118.648 90.1484C117.267 90.1484 115.901 90.4297 114.632 90.975C113.364 91.5203 112.219 92.3183 111.269 93.3204C110.319 94.3224 109.583 95.5074 109.105 96.8032C108.628 98.0991 108.42 99.4785 108.493 100.858L111.339 166.274L111.393 206.097C109.716 206.808 108.298 208.019 107.332 209.564C106.366 211.11 105.9 212.915 105.996 214.735C106.092 216.555 106.746 218.301 107.869 219.736C108.992 221.171 110.529 222.226 112.273 222.757C114.016 223.288 115.88 223.269 117.613 222.703C119.345 222.138 120.861 221.053 121.955 219.595C123.049 218.138 123.668 216.379 123.728 214.558C123.788 212.737 123.285 210.941 122.289 209.415L129.626 163.158Z" fill="#FFB6B6"/>
<path d="M235.673 244.667C235.673 244.667 234.422 267.168 233.847 280H190.776C189.89 268.322 189.591 259.742 189.591 259.742L187.235 280H143.699L141 242.481L154.043 210.15C154.043 210.15 224.727 205.248 231.284 211.466C237.836 217.681 235.673 244.667 235.673 244.667Z" fill="#2F2E41"/>
<path d="M197.586 55.3878C210.579 55.3878 221.112 44.8546 221.112 31.8614C221.112 18.8681 210.579 8.33496 197.586 8.33496C184.592 8.33496 174.059 18.8681 174.059 31.8614C174.059 44.8546 184.592 55.3878 197.586 55.3878Z" fill="#FFB6B6"/>
<path d="M225.008 24.2167C222.592 25.3185 221.026 33.2988 219.127 31.4436C217.227 29.5883 217.354 27.174 214.793 26.4893C212.725 25.934 210.5 26.5686 208.614 27.5695C208.277 27.7461 207.951 27.9381 207.632 28.1291C207.422 27.9887 207.213 27.8567 206.989 27.7348C205.302 26.832 203.332 26.6105 201.487 27.116C202.945 27.6044 204.213 28.539 205.111 29.7875C204.48 30.2105 203.841 30.6346 203.187 31.0104C197.723 34.1636 189.948 27.3072 184.196 24.7314C187.799 31.4917 186.025 34.2915 182.897 41.2831L182.789 41.6812C182.966 39.9289 177.544 38.623 177.859 41.0897C178.082 42.8411 179.597 46.7339 180.446 48.2803C174.399 41.2883 170.267 32.7321 171.139 23.9057C171.329 22.0515 171.272 20.0952 172.228 18.4859C173.185 16.8849 175.181 15.7614 176.947 16.3719C176.797 13.557 177.413 10.7543 178.73 8.26152C180.046 5.76878 182.013 3.67925 184.421 2.21509C186.83 0.750924 189.59 -0.0331502 192.409 -0.0537813C195.228 -0.0744124 198 0.669176 200.43 2.09792C202.687 3.42281 204.572 5.29661 206.642 6.91292C208.711 8.52922 211.097 9.93809 213.721 10.0715C215.386 10.1518 217.197 9.74539 218.627 10.6076C220.284 11.608 220.568 13.7026 220.816 15.7182C219.339 15.8638 217.938 16.4468 216.793 17.3925C218.322 17.2365 219.861 17.5666 221.192 18.3359C221.217 18.3473 221.241 18.361 221.264 18.3768C222.14 21.7078 222.05 22.4463 225.008 24.2167Z" fill="#2F2E41"/>
<path d="M143.803 221.532C163.838 198.081 157.071 168.253 149.119 138.144L150.632 93.6625C150.706 91.4806 151.305 89.3485 152.376 87.4464C153.448 85.5443 154.961 83.9279 156.789 82.7339L177.242 69.372L185.203 57.8623L207.146 60.0566L219.314 72.9252L232.784 83.2078C236.165 85.7896 238.739 89.2845 240.2 93.2805C241.661 97.2765 241.949 101.607 241.031 105.761L228.141 164.052C228.141 164.052 233.532 194.271 230.243 197.608C226.953 200.945 218.478 197.61 225.199 201.356C233.265 205.852 240.6 205.022 236.518 209.104C232.436 213.186 237.602 218.861 237.602 218.861L143.803 221.532Z" fill="#FE5433"/>
<path d="M152.369 255.614L155.709 231.818L142.382 228.014L139.746 253.298C138.643 254.309 137.844 255.608 137.439 257.048C137.033 258.489 137.038 260.014 137.452 261.452C137.866 262.89 138.673 264.184 139.782 265.188C140.891 266.193 142.258 266.868 143.73 267.138C145.202 267.408 146.72 267.263 148.113 266.717C149.507 266.172 150.721 265.249 151.618 264.051C152.516 262.854 153.062 261.43 153.194 259.939C153.327 258.449 153.041 256.951 152.369 255.614Z" fill="#FFB6B6"/>
<path d="M177.742 73.6616C177.742 73.6616 139.807 86.0082 138.902 95.0421C137.998 104.076 138.298 109.606 134.294 145.756L134.505 243.134C134.505 243.134 159.938 248.579 157.33 242.757C154.721 236.935 155.632 234.196 155.632 234.196C155.632 234.196 161.084 232.044 159.719 225.208C158.354 218.372 165.2 184.495 165.2 184.495L169.52 123.738L177.742 73.6616Z" fill="#FE5433"/>
<path d="M224.517 254.354L222.74 230.391L236.287 227.465L237.265 252.868C238.299 253.949 239.012 255.297 239.322 256.761C239.632 258.225 239.528 259.746 239.021 261.154C238.513 262.562 237.624 263.801 236.451 264.731C235.279 265.66 233.87 266.245 232.384 266.418C230.898 266.592 229.393 266.347 228.038 265.712C226.683 265.076 225.532 264.076 224.715 262.822C223.897 261.569 223.446 260.112 223.411 258.616C223.376 257.12 223.759 255.644 224.517 254.354Z" fill="#FFB6B6"/>
<path d="M211.092 71.1318C211.092 71.1318 248.139 85.9317 248.451 95.0054C248.763 104.079 248.102 109.578 249.734 145.912L243.159 243.067C243.159 243.067 217.424 246.839 220.407 241.2C223.391 235.56 222.661 232.768 222.661 232.768C222.661 232.768 217.361 230.264 219.17 223.532C220.979 216.8 216.362 182.548 216.362 182.548L216.023 121.639L211.092 71.1318Z" fill="#FE5433"/>
</g>
<defs>
<clipPath id="clip0_955_5523">
<rect width="367.772" height="280" fill="white"/>
</clipPath>
</defs>
</svg>
